<svg id="eqpkyg6YOSs1" xmlns="http://www.w3.org/2000/svg" xmlns:xlink="http://www.w3.org/1999/xlink" viewBox="0 0 793 684" shape-rendering="geometricPrecision" text-rendering="geometricPrecision"><g><rect width="457" height="512" rx="0" ry="0" transform="translate(232 38)" fill="#fff"/><path d="M40,166h64v384h-54c-5.5228,0-10-4.477-10-10v-374Z" fill="#18222f"/><rect width="128" height="512" rx="0" ry="0" transform="translate(104 38)" fill="#f0f4f9"/><path d="M40,48c0-5.5228,4.4772-10,10-10h54v64h-64v-54Z" fill="#39f"/><rect width="64" height="64" rx="0" ry="0" transform="translate(40 102)" fill="#f0f4f9"/><path d="M689,230h64v256h-64v-256Z" fill="#f0f4f9"/><path d="M689,38h54c5.523,0,10,4.4772,10,10v54h-64v-64Z" fill="#e4eaf1"/><path d="M689,102h64v64h-64v-64Z" fill="#e4eaf1"/><path d="M689,166h64v64h-64v-64Z" fill="#e4eaf1"/><path d="M689,486h64v54c0,5.523-4.477,10-10,10h-54v-64Z" fill="#e4eaf1"/><path d="M726,518c-2.76,0-5,2.24-5,5s2.24,5,5,5s5-2.24,5-5-2.24-5-5-5Zm1.65,7.35l-2.15-2.15v-3.2h1v2.79l1.85,1.85ZM727,509h-3.18c-.42-1.16-1.52-2-2.82-2s-2.4.84-2.82,2h-3.18c-1.1,0-2,.9-2,2v15c0,1.1.9,2,2,2h6.11c-.591626-.574246-1.07292-1.252126-1.42-2h-4.69v-15h2v3h8v-3h2v5.08c.71.1,1.38.31,2,.6v-5.68c0-1.1-.9-2-2-2Zm-6,2c-.55,0-1-.45-1-1s.45-1,1-1s1,.45,1,1-.45,1-1,1Z" fill="#182b44"/><path d="M720.016,64.9844h1.968v2.0156h-1.968v-2.0156Zm0,4.0312h1.968v6h-1.968v-6Zm.984-9c-5.531,0-9.984,4.4532-9.984,9.9844s4.453,9.9844,9.984,9.9844s9.984-4.4532,9.984-9.9844-4.453-9.9844-9.984-9.9844Zm0,18c-4.406,0-8.016-3.6094-8.016-8.0156s3.61-8.0156,8.016-8.0156s8.016,3.6094,8.016,8.0156-3.61,8.0156-8.016,8.0156Z" fill="#182b44"/><path d="M721,140.562l-7.359-5.765L712,136.062l9,6.985l9-6.985-1.641-1.265L721,140.562Zm0-2.578l7.359-5.718L730,131l-9-6.984L712,131l1.641,1.266L721,137.984Zm0-11.437L726.719,131L721,135.453L715.281,131L721,126.547Z" fill="#182b44"/><path d="M715,198.984v-1.968h12v1.968h-12ZM712,192h18v2.016h-18v-2.016Zm6.984,12v-2.016h4.032v2.016h-4.032Z" fill="#182b44"/><rect width="104" height="16" rx="4" ry="4" transform="translate(117 114)" fill="#e4eaf1"/><rect width="104" height="16" rx="4" ry="4" transform="translate(309 62)" fill="#f0f4f9"/><rect width="69" height="69" rx="4" ry="4" transform="translate(264 128)" fill="#f0f4f9"/><rect width="69" height="69" rx="4" ry="4" transform="translate(264 209)" fill="#f0f4f9"/><rect width="69" height="69" rx="4" ry="4" transform="translate(264 290)" fill="#f0f4f9"/><rect width="69" height="69" rx="4" ry="4" transform="translate(264 371)" fill="#f0f4f9"/><rect width="69" height="69" rx="4" ry="4" transform="translate(508 128)" fill="#f0f4f9"/><rect width="69" height="69" rx="4" ry="4" transform="translate(589 128)" fill="#f0f4f9"/><rect width="69" height="69" rx="4" ry="4" transform="translate(508 209)" fill="#f0f4f9"/><rect width="69" height="69" rx="4" ry="4" transform="translate(589 209)" fill="#f0f4f9"/><rect width="69" height="69" rx="4" ry="4" transform="translate(508 290)" fill="#f0f4f9"/><rect width="69" height="69" rx="4" ry="4" transform="translate(589 290)" fill="#f0f4f9"/><rect width="69" height="69" rx="4" ry="4" transform="translate(346 128)" fill="#f0f4f9"/><rect width="69" height="69" rx="4" ry="4" transform="translate(346 209)" fill="#f0f4f9"/><rect width="69" height="69" rx="4" ry="4" transform="translate(346 290)" fill="#f0f4f9"/><rect width="69" height="69" rx="4" ry="4" transform="translate(346 371)" fill="#f0f4f9"/><rect width="69" height="69" rx="4" ry="4" transform="translate(427 128)" fill="#f0f4f9"/><rect width="69" height="69" rx="4" ry="4" transform="translate(427 209)" fill="#f0f4f9"/><rect width="69" height="69" rx="4" ry="4" transform="translate(427 290)" fill="#f0f4f9"/><rect width="36" height="36" rx="18" ry="18" transform="translate(264 52)" fill="#f0f4f9"/><rect width="78" height="16" rx="4" ry="4" transform="translate(117 142)" fill="#e4eaf1"/><rect width="78" height="16" rx="4" ry="4" transform="translate(117 236)" fill="#e4eaf1"/><rect width="71" height="16" rx="4" ry="4" transform="translate(117 198)" fill="#e4eaf1"/><rect width="90" height="16" rx="4" ry="4" transform="translate(117 170)" fill="#e4eaf1"/><rect width="90" height="16" rx="4" ry="4" transform="translate(117 264)" fill="#e4eaf1"/><rect width="36" height="36" rx="18" ry="18" transform="translate(622 52)" fill="#39f"/><path d="M646.984,70.9844h-6v6h-1.968v-6h-6v-1.9688h6v-6h1.968v6h6v1.9688Z" fill="#fff"/><rect width="36" height="36" rx="18" ry="18" transform="translate(578 52)" fill="#ddf"/><path d="M593.188,64l1.968,2.0156h8.86v9.9844h-16.032v-12h5.204Zm.796-2.0156h-6c-1.078,0-1.968.9375-1.968,2.0156v12c0,1.0781.89,2.0156,1.968,2.0156h16.032c1.078,0,1.968-.9375,1.968-2.0156v-9.9844c0-1.125-.89-2.0156-1.968-2.0156L596,64l-2.016-2.0156Z" fill="#64f"/><rect width="34" height="34" rx="17" ry="17" transform="translate(535 53)" fill="#fff" stroke="#d3dae4" stroke-width="2"/><path d="M546.328,70.7031c.875.875,1.938,1.3125,3.188,1.3125s2.312-.4375,3.187-1.3125s1.313-1.9375,1.313-3.1875-.438-2.3125-1.313-3.1875-1.937-1.3125-3.187-1.3125-2.313.4375-3.188,1.3125-1.312,1.9375-1.312,3.1875.437,2.3125,1.312,3.1875Zm9.188,1.3125l4.968,4.9688-1.5,1.5-4.968-4.9688v-.7968l-.282-.2813c-1.187,1.0313-2.593,1.5469-4.218,1.5469-1.813,0-3.36-.625-4.641-1.875-1.25-1.25-1.875-2.7813-1.875-4.5938s.625-3.3437,1.875-4.5937C546.156,61.6406,547.703,61,549.516,61c1.812,0,3.343.6406,4.593,1.9219c1.25,1.25,1.875,2.7812,1.875,4.5937c0,1.625-.515,3.0313-1.546,4.2188l.281.2812h.797Z" fill="#a2b5cd"/><rect width="128" height="64" rx="0" ry="0" transform="translate(104.435 38)" fill="#e4eaf1"/><rect width="104" height="2" rx="0" ry="0" transform="translate(117 224)" fill="#e4eaf1"/><rect width="48" height="2" rx="0" ry="0" transform="translate(48 484)" opacity="0.25" fill="#8196b1"/><path d="M127,79.4688L115.375,64.9844C119.156,62.3281,123.031,61,127,61s7.844,1.3281,11.625,3.9844L127,79.4688Z" fill="#a2b5cd"/><rect width="74" height="16" rx="4" ry="4" transform="translate(147 62)" fill="#a2b5cd"/></g><circle r="32" transform="translate(72 612)" fill="#39f"/><circle r="32" transform="translate(168 612)" fill="#39f"/><circle r="32" transform="translate(721 612)" fill="#39f"/><path d="M75.1374,602.545v17.455h-3.6903v-13.952h-.1023l-3.9971,2.506v-3.273l4.321-2.736h3.4687Z" fill="#fff"/><path d="M161.856,620v-2.659l6.213-5.753c.529-.511.972-.972,1.33-1.381.363-.409.639-.809.826-1.201.188-.398.282-.827.282-1.287c0-.512-.117-.952-.35-1.321-.233-.375-.551-.662-.954-.861-.404-.205-.861-.307-1.372-.307-.534,0-1,.108-1.398.324s-.705.526-.921.929c-.215.403-.323.883-.323,1.44h-3.503c0-1.142.258-2.133.775-2.974s1.242-1.492,2.174-1.952c.931-.46,2.005-.69,3.221-.69c1.25,0,2.338.221,3.264.665.932.437,1.657,1.045,2.174,1.823.517.779.775,1.671.775,2.677c0,.659-.13,1.309-.392,1.951-.255.642-.713,1.355-1.372,2.139-.659.779-1.588,1.714-2.787,2.804l-2.548,2.498v.119h7.329v3.017h-12.443Z" fill="#fff"/><circle r="32" transform="translate(461 612)" fill="#39f"/><path d="M460.956,620.239c-1.272,0-2.406-.219-3.4-.657-.989-.443-1.77-1.051-2.344-1.823-.568-.779-.861-1.677-.878-2.694h3.716c.023.426.162.801.418,1.125.261.319.608.566,1.039.742.432.176.918.264,1.458.264.562,0,1.06-.099,1.491-.298.432-.199.77-.475,1.015-.827.244-.352.366-.759.366-1.219c0-.466-.131-.878-.392-1.236-.256-.363-.625-.647-1.108-.852-.477-.204-1.045-.307-1.705-.307h-1.627v-2.71h1.627c.557,0,1.049-.096,1.475-.29.432-.193.767-.46,1.006-.801.238-.346.358-.75.358-1.21c0-.437-.106-.821-.316-1.151-.204-.335-.494-.596-.869-.784-.369-.187-.801-.281-1.296-.281-.5,0-.957.091-1.372.273-.415.176-.747.429-.997.758-.25.33-.383.716-.4,1.159h-3.537c.017-1.005.304-1.892.86-2.659.557-.767,1.307-1.366,2.25-1.798.949-.437,2.02-.656,3.213-.656c1.205,0,2.259.219,3.162.656.904.438,1.606,1.028,2.106,1.773.505.738.755,1.568.75,2.488.005.978-.299,1.793-.912,2.446-.608.654-1.401,1.069-2.378,1.245v.136c1.284.165,2.261.611,2.932,1.338.676.722,1.011,1.625,1.005,2.71.006.995-.281,1.878-.861,2.651-.573.773-1.366,1.381-2.377,1.824-1.012.443-2.171.665-3.478.665Z" fill="#fff"/><path d="M713.518,616.932v-2.906l7.287-11.481h2.505v4.023h-1.483l-4.593,7.27v.136h10.355v2.958h-14.071ZM721.896,620v-3.955l.068-1.286v-12.214h3.46v17.455h-3.528Z" fill="#fff"/></svg>
